HIERARCHY
ROOT joint_Root
{
	OFFSET 0.0 0.0 0.0
	CHANNELS 6 Xposition Yposition Zposition Zrotation Xrotation Yrotation 
	JOINT Hips
	{
		OFFSET -17.1583 93.1646 452.98
		CHANNELS 6 Xposition Yposition Zposition Zrotation Xrotation Yrotation 
		JOINT Spine
		{
			OFFSET 15.7357 0.0 0.0
			CHANNELS 6 Xposition Yposition Zposition Zrotation Xrotation Yrotation 
			JOINT Chest
			{
				OFFSET 8.98455 -0.406207 0.0
				CHANNELS 6 Xposition Yposition Zposition Zrotation Xrotation Yrotation 
				JOINT Neck
				{
					OFFSET 16.3773 0.0 0.0
					CHANNELS 6 Xposition Yposition Zposition Zrotation Xrotation Yrotation 
					JOINT Head
					{
						OFFSET 6.45672 0.0 0.0
						CHANNELS 6 Xposition Yposition Zposition Zrotation Xrotation Yrotation 
						End Site
						{
							OFFSET 0.0 0.0 0.0
						}
					}
				}
				JOINT Shoulder_L
				{
					OFFSET 12.9942 -0.242716 4.98039
					CHANNELS 6 Xposition Yposition Zposition Zrotation Xrotation Yrotation 
					JOINT UpperArm_L
					{
						OFFSET 5.34809 0.0 0.0
						CHANNELS 6 Xposition Yposition Zposition Zrotation Xrotation Yrotation 
						JOINT LowerArm_L
						{
							OFFSET 24.3286 1.87007e-05 0.0
							CHANNELS 6 Xposition Yposition Zposition Zrotation Xrotation Yrotation 
							JOINT Hand_L
							{
								OFFSET 22.2916 0.0 0.0
								CHANNELS 6 Xposition Yposition Zposition Zrotation Xrotation Yrotation 
								End Site
								{
									OFFSET 0.0 0.0 0.0
								}
							}
						}
					}
				}
				JOINT Shoulder_R
				{
					OFFSET 12.9945 -0.242716 -4.98039
					CHANNELS 6 Xposition Yposition Zposition Zrotation Xrotation Yrotation 
					JOINT UpperArm_R
					{
						OFFSET -5.34813 0.0 0.0
						CHANNELS 6 Xposition Yposition Zposition Zrotation Xrotation Yrotation 
						JOINT LowerArm_R
						{
							OFFSET -24.3289 0.000322201 0.0
							CHANNELS 6 Xposition Yposition Zposition Zrotation Xrotation Yrotation 
							JOINT Hand_R
							{
								OFFSET -22.2915 -0.000108084 0.0
								CHANNELS 6 Xposition Yposition Zposition Zrotation Xrotation Yrotation 
								End Site
								{
									OFFSET 0.0 0.0 0.0
								}
							}
						}
					}
				}
			}
		}
		JOINT UpperLeg_L
		{
			OFFSET -2.19248 -6.46944 0.0
			CHANNELS 6 Xposition Yposition Zposition Zrotation Xrotation Yrotation 
			JOINT LowerLeg_L
			{
				OFFSET 39.0811 0.0 -1.23785e-05
				CHANNELS 6 Xposition Yposition Zposition Zrotation Xrotation Yrotation 
				JOINT Foot_L
				{
					OFFSET 40.9854 0.0 -1.26872e-05
					CHANNELS 6 Xposition Yposition Zposition Zrotation Xrotation Yrotation 
					JOINT Toes_L
					{
						OFFSET 11.7543 0.0 0.0
						CHANNELS 6 Xposition Yposition Zposition Zrotation Xrotation Yrotation 
						End Site
						{
							OFFSET 0.0 0.0 0.0
						}
					}
				}
			}
		}
		JOINT UpperLeg_R
		{
			OFFSET -2.19251 6.46944 0.0
			CHANNELS 6 Xposition Yposition Zposition Zrotation Xrotation Yrotation 
			JOINT LowerLeg_R
			{
				OFFSET -39.0811 -0.00228153 -0.0401928
				CHANNELS 6 Xposition Yposition Zposition Zrotation Xrotation Yrotation 
				JOINT Foot_R
				{
					OFFSET -40.9854 0.0 0.0
					CHANNELS 6 Xposition Yposition Zposition Zrotation Xrotation Yrotation 
					JOINT Toes_R
					{
						OFFSET -11.7543 0.0 0.0
						CHANNELS 6 Xposition Yposition Zposition Zrotation Xrotation Yrotation 
						End Site
						{
							OFFSET 0.0 0.0 0.0
						}
					}
				}
			}
		}
	}
}
MOTION
Frames:	5
Frame Time:	0.0333333
0.000000 0.000000 0.000000 0.000000 0.000000 -0.000000 140.894000 92.000100 223.039000 -84.621000 34.319000 171.007000 15.735700 0.000005 -0.000001 151.739000 86.481200 -150.001000 8.984550 -0.406207 -0.000000 -4.535880 6.007080 3.718890 16.377300 -0.000001 -0.000001 0.929041 7.317020 4.240920 6.456720 -0.000001 -0.000000 2.455180 10.258000 7.897170 12.994200 -0.242716 4.980390 -92.086600 4.872900 -66.785200 5.348090 -0.000007 -0.000001 -36.927700 -25.982300 15.630600 24.328600 0.000019 0.000005 1.867670 6.606630 -15.823000 22.291600 -0.000001 0.000005 15.226300 4.980640 7.721620 12.994500 -0.242716 -4.980390 89.805600 0.674422 -73.919700 -5.348130 -0.000001 -0.000004 -48.181700 -7.549370 -37.531900 -24.328900 0.000322 -0.000009 -2.930280 -3.611760 -39.085200 -22.291500 -0.000108 -0.000004 11.006300 5.343590 -1.185550 -2.192480 -6.469440 -0.000000 173.776000 -7.545280 -27.515500 39.081100 -0.000007 -0.000012 0.005036 -0.038846 7.387630 40.985400 -0.000006 -0.000013 -3.419210 0.420590 -59.971800 11.754300 -0.000000 0.000003 0.001964 0.045350 -14.737200 -2.192510 6.469440 -0.000001 175.755000 23.766200 -175.233000 -39.081100 -0.002282 -0.040193 -0.031095 0.102993 18.478800 -40.985400 0.000008 0.000006 -16.588400 0.056949 -58.777800 -11.754300 -0.000006 -0.000006 -0.011518 -0.114653 -21.246400
0.000000 0.000000 0.000000 0.000000 0.000000 -0.000000 143.496000 91.322300 219.888000 -84.137000 34.349900 170.130000 15.735700 0.000005 -0.000001 157.937000 86.470900 -156.232000 8.984550 -0.406207 -0.000000 -5.224490 6.341050 3.704710 16.377300 -0.000001 -0.000001 0.584095 7.671550 4.200640 6.456720 -0.000001 -0.000000 2.423160 10.581900 7.782260 12.994200 -0.242716 4.980390 -91.981900 4.634270 -66.814800 5.348090 -0.000007 -0.000001 -33.973300 -29.467300 17.202800 24.328600 0.000019 0.000005 0.178317 0.688629 -14.494600 22.291600 -0.000001 0.000005 26.022300 4.912240 9.126550 12.994500 -0.242716 -4.980390 89.852100 0.522061 -74.186100 -5.348130 -0.000001 -0.000004 -50.352300 -8.926990 -38.586900 -24.328900 0.000322 -0.000009 -3.203080 -3.620240 -41.539400 -22.291500 -0.000108 -0.000004 12.082100 5.351160 -1.411680 -2.192480 -6.469440 -0.000000 173.497000 -8.228180 -29.050200 39.081100 -0.000007 -0.000012 0.001188 -0.012421 5.464640 40.985400 -0.000006 -0.000013 -3.427850 3.001340 -63.908200 11.754300 -0.000000 0.000003 0.002110 0.051179 -14.500800 -2.192510 6.469440 -0.000001 175.552000 22.838800 -175.043000 -39.081100 -0.002282 -0.040193 -0.034702 0.097281 21.347500 -40.985400 0.000008 0.000006 -16.636300 -0.106625 -57.375000 -11.754300 -0.000006 -0.000006 -0.030726 -0.220770 -25.619300
0.000000 0.000000 0.000000 0.000000 0.000000 -0.000000 146.426000 90.537600 216.088000 -83.991100 34.520900 169.992000 15.735700 0.000005 -0.000001 161.194000 86.455000 -159.676000 8.984550 -0.406207 -0.000000 -5.585380 6.526350 3.359930 16.377300 -0.000001 -0.000001 0.020091 7.903400 4.348840 6.456720 -0.000001 -0.000000 2.342120 10.952800 7.914130 12.994200 -0.242716 4.980390 -91.802400 4.296150 -67.214100 5.348090 -0.000007 -0.000001 -32.492200 -31.392900 17.768200 24.328600 0.000019 0.000005 -0.276019 -1.449380 -10.781600 22.291600 -0.000001 0.000005 32.298200 4.799760 11.319200 12.994500 -0.242716 -4.980390 89.916000 0.300285 -74.376100 -5.348130 -0.000001 -0.000004 -53.154200 -8.860970 -37.576600 -24.328900 0.000322 -0.000009 -3.336560 -3.334150 -45.060300 -22.291500 -0.000108 -0.000004 13.371300 5.364220 -1.807950 -2.192480 -6.469440 -0.000000 174.520000 -7.144460 -28.658800 39.081100 -0.000007 -0.000012 0.001348 -0.012807 6.013160 40.985400 -0.000006 -0.000013 -3.493070 4.971600 -64.915400 11.754300 -0.000000 0.000003 0.002055 0.048851 -14.595200 -2.192510 6.469440 -0.000001 174.850000 21.078700 -174.578000 -39.081100 -0.002282 -0.040193 -0.017752 0.045246 24.964200 -40.985400 0.000008 0.000006 -16.267200 -1.141660 -54.758300 -11.754300 -0.000006 -0.000006 -0.072841 -0.371421 -31.964100
0.000000 0.000000 0.000000 0.000000 0.000000 -0.000000 149.122000 89.924700 211.879000 -85.616900 34.001800 169.660000 15.735700 0.000005 -0.000001 170.253000 86.929500 -169.500000 8.984550 -0.406207 -0.000000 -6.786080 5.945330 1.861290 16.377300 -0.000001 -0.000001 -0.421709 7.957710 4.911410 6.456720 -0.000001 -0.000000 2.122060 11.437700 8.113180 12.994200 -0.242716 4.980390 -91.779200 4.361130 -67.780600 5.348090 -0.000007 -0.000001 -32.090800 -31.468500 17.427000 24.328600 0.000019 0.000005 0.038042 0.398785 -5.469090 22.291600 -0.000001 0.000005 32.150400 4.658470 13.898900 12.994500 -0.242716 -4.980390 89.701000 1.067280 -74.351500 -5.348130 -0.000001 -0.000004 -54.836200 -7.060470 -34.990100 -24.328900 0.000322 -0.000009 -2.177940 -1.935250 -48.382700 -22.291500 -0.000108 -0.000004 14.355100 5.377720 -2.227010 -2.192480 -6.469440 -0.000000 171.961000 -4.715450 -31.410900 39.081100 -0.000007 -0.000012 -0.002771 0.013062 11.974900 40.985400 -0.000006 -0.000013 10.014400 1.535210 -58.761600 11.754300 -0.000000 0.000003 0.000871 0.016241 -15.918100 -2.192510 6.469440 -0.000001 173.478000 19.739900 -176.290000 -39.081100 -0.002282 -0.040193 0.070629 -0.119300 29.437900 -40.985400 0.000008 0.000006 -14.346100 -3.301700 -50.113000 -11.754300 -0.000006 -0.000006 -0.142860 -0.540442 -39.386300
0.000000 0.000000 0.000000 0.000000 0.000000 -0.000000 151.696000 89.431700 207.293000 -87.608700 33.657600 170.441000 15.735700 0.000005 -0.000001 178.661000 87.469000 -178.755000 8.984550 -0.406207 -0.000000 -7.660950 5.060880 0.149264 16.377300 -0.000001 -0.000001 -0.466904 8.083910 5.456510 6.456720 -0.000001 -0.000000 2.104020 12.346600 8.250340 12.994200 -0.242716 4.980390 -92.075300 5.175760 -68.115400 5.348090 -0.000007 -0.000001 -32.468600 -30.466500 17.335900 24.328600 0.000019 0.000005 0.074522 1.923000 -2.218330 22.291600 -0.000001 0.000005 28.247900 4.478800 16.952500 12.994500 -0.242716 -4.980390 89.269000 2.583940 -74.198800 -5.348130 -0.000001 -0.000004 -55.076400 -3.057640 -31.272000 -24.328900 0.000322 -0.000009 -0.235730 -0.190101 -50.988700 -22.291500 -0.000108 -0.000004 14.308000 5.370660 -2.006920 -2.192480 -6.469440 -0.000000 170.982000 -1.804380 -33.504600 39.081100 -0.000007 -0.000012 0.067526 -0.195556 19.050000 40.985400 -0.000006 -0.000013 11.273400 0.006467 -51.820300 11.754300 -0.000000 0.000003 0.002275 0.059312 -14.171000 -2.192510 6.469440 -0.000001 171.869000 17.033800 -178.894000 -39.081100 -0.002282 -0.040193 0.216213 -0.295601 35.765700 -40.985400 0.000008 0.000006 -10.358000 -5.827120 -42.269600 -11.754300 -0.000006 -0.000006 -0.167088 -0.587411 -41.529100
